<svg width="235" height="99" viewBox="0 0 235 99" fill="none" xmlns="http://www.w3.org/2000/svg">
<path d="M140.866 64.8873C140.69 64.8873 140.514 64.7111 140.514 64.5353L140.69 49.3561L140.514 34.4407C140.514 34.265 140.69 34.0891 140.866 34.0891H145.622C145.798 34.0891 145.974 34.2649 145.974 34.4407L145.798 49.3561L145.974 64.5353C145.974 64.7111 145.798 64.8873 145.622 64.8873H140.866Z" fill="white"/>
<path d="M182.227 64.5352C182.227 64.711 182.05 64.8871 181.874 64.8871H169.754C168.345 65.2832 166.804 65.503 165.131 65.503C155.971 65.503 149.982 59.0356 149.982 49.5321C149.982 39.7207 155.927 33.4728 165.131 33.4728C174.246 33.4728 180.279 39.6326 180.279 49.5761C180.279 54.0197 178.958 57.8034 176.624 60.5312L178.209 60.4872H181.874C182.05 60.4872 182.227 60.6634 182.227 60.8396L182.227 64.5352ZM165.13 61.1475C171.208 61.1475 174.73 56.7916 174.73 49.5761C174.73 42.3607 171.208 37.8286 165.13 37.8286C159.01 37.8286 155.574 42.2282 155.574 49.5761C155.574 56.7475 159.097 61.1475 165.13 61.1475Z" fill="white"/>
<path d="M87.9854 87.4521C67.0402 87.4521 50 70.4269 50 49.5C50 28.5732 67.0402 11.548 87.9854 11.548C108.931 11.548 125.971 28.5733 125.971 49.5C125.971 70.4268 108.931 87.4521 87.9854 87.4521Z" fill="white"/>
<path d="M109.313 38.7302H103.702L95.8416 60.2762H101.455L109.316 38.7302H109.313ZM87.9872 84.7129C87.6374 84.7129 87.2874 84.7066 86.9408 84.6972L94.1427 64.9179H104.055C105.795 64.9179 107.705 63.5796 108.301 61.9483L116.114 40.5031C117.391 36.9919 115.38 34.1199 111.639 34.1199H97.8872L86.3482 65.7995H86.3419L79.8018 83.7555C64.2853 80.068 52.74 66.1334 52.74 49.5C52.74 32.8666 63.6266 19.7349 78.4686 15.5845L71.7173 34.12L60.4967 64.9179H67.9666L77.5105 38.746H83.1239L73.5801 64.9179H81.0468L89.9381 40.5031C91.2178 36.9919 89.2037 34.1199 85.4688 34.1199H79.1903L86.4017 14.3249C86.9281 14.3028 87.4545 14.2871 87.9871 14.2871C107.453 14.2871 123.231 30.0545 123.231 49.5C123.231 68.9456 107.45 84.7129 87.9872 84.7129Z" fill="#024AD8"/>
</svg>
