<svg width="221" height="220" viewBox="0 0 221 220" fill="none" xmlns="http://www.w3.org/2000/svg">
<path d="M210.435 111L211.475 111.882L212.49 112.781L213.461 113.698L214.371 114.63L215.205 115.574L215.947 116.53L216.583 117.492L217.102 118.459L217.495 119.426L217.752 120.389L217.869 121.345L217.843 122.289L217.672 123.218L217.359 124.129L216.907 125.017L216.322 125.882L215.613 126.719L214.791 127.528L213.867 128.309L212.855 129.059L211.77 129.781L210.63 130.476L209.45 131.145L208.249 131.791L207.045 132.418L205.854 133.029L204.695 133.63L203.583 134.225L202.534 134.819L201.563 135.418L200.682 136.028L199.901 136.654L199.23 137.302L198.675 137.978L198.242 138.686L197.932 139.43L197.745 140.214L197.68 141.041L197.732 141.914L197.894 142.832L198.157 143.798L198.512 144.81L198.945 145.865L199.444 146.962L199.994 148.097L200.579 149.264L201.183 150.459L201.789 151.674L202.381 152.902L202.942 154.137L203.456 155.369L203.909 156.591L204.287 157.793L204.576 158.967L204.765 160.105L204.847 161.2L204.812 162.243L204.655 163.227L204.374 164.148L203.965 165L203.432 165.779L202.775 166.484L202.001 167.112L201.115 167.663L200.127 168.14L199.046 168.545L197.884 168.882L196.655 169.156L195.37 169.375L194.046 169.545L192.696 169.677L191.336 169.779L189.981 169.861L188.645 169.935L187.341 170.012L186.084 170.104L184.884 170.22L183.753 170.372L182.7 170.571L181.732 170.825L180.855 171.145L180.074 171.536L179.39 172.006L178.804 172.56L178.315 173.201L177.919 173.93L177.611 174.748L177.385 175.653L177.233 176.642L177.145 177.711L177.112 178.851L177.122 180.057L177.163 181.317L177.222 182.621L177.288 183.958L177.348 185.314L177.389 186.678L177.399 188.034L177.368 189.369L177.285 190.669L177.14 191.92L176.927 193.111L176.637 194.228L176.266 195.261L175.81 196.199L175.267 197.035L174.635 197.762L173.915 198.374L173.111 198.869L172.225 199.245L171.262 199.504L170.228 199.647L169.131 199.681L167.98 199.611L166.781 199.447L165.546 199.197L164.284 198.874L163.005 198.492L161.718 198.063L160.435 197.603L159.163 197.127L157.912 196.651L156.69 196.191L155.504 195.763L154.361 195.381L153.266 195.06L152.223 194.813L151.235 194.652L150.304 194.587L149.431 194.627L148.615 194.779L147.854 195.046L147.147 195.432L146.488 195.937L145.875 196.56L145.3 197.295L144.759 198.137L144.244 199.077L143.75 200.106L143.269 201.21L142.793 202.378L142.317 203.594L141.834 204.842L141.336 206.106L140.819 207.368L140.277 208.611L139.706 209.817L139.101 210.971L138.46 212.056L137.781 213.057L137.062 213.959L136.303 214.752L135.505 215.424L134.668 215.966L133.795 216.373L132.889 216.64L131.953 216.765L130.99 216.748L130.005 216.593L129.003 216.304L127.987 215.888L126.963 215.356L125.935 214.718L124.909 213.988L123.887 213.18L122.874 212.31L121.873 211.395L120.888 210.452L119.919 209.5L118.97 208.557L118.04 207.64L117.131 206.766L116.242 205.952L115.372 205.214L114.52 204.564L113.683 204.015L112.859 203.577L112.045 203.259L111.238 203.065L110.435 203L109.631 203.065L108.824 203.259L108.01 203.577L107.187 204.015L106.35 204.564L105.497 205.214L104.627 205.952L103.738 206.766L102.829 207.64L101.9 208.557L100.95 209.5L99.9818 210.452L98.9961 211.395L97.9954 212.31L96.9824 213.18L95.9607 213.988L94.9339 214.718L93.9063 215.356L92.8824 215.888L91.8668 216.304L90.8642 216.593L89.8793 216.748L88.9166 216.765L87.9802 216.64L87.074 216.373L86.2013 215.966L85.3647 215.424L84.5664 214.752L83.8075 213.959L83.0887 213.057L82.4093 212.056L81.7684 210.971L81.1636 209.817L80.5921 208.611L80.0501 207.368L79.533 206.106L79.0355 204.842L78.552 203.594L78.0759 202.378L77.6007 201.21L77.1195 200.106L76.6251 199.077L76.1107 198.137L75.5694 197.295L74.9948 196.56L74.3809 195.937L73.7225 195.432L73.0149 195.046L72.2545 194.779L71.4386 194.627L70.5655 194.587L69.6347 194.652L68.6468 194.813L67.6038 195.06L66.5086 195.381L65.3654 195.763L64.1796 196.191L62.9575 196.651L61.7065 197.127L60.4347 197.603L59.1509 198.063L57.8644 198.492L56.5852 198.874L55.3231 199.197L54.088 199.447L52.8898 199.611L51.7379 199.681L50.6412 199.647L49.6077 199.504L48.6448 199.245L47.7585 198.869L46.9539 198.374L46.2345 197.762L45.6027 197.035L45.0591 196.199L44.6031 195.261L44.2322 194.228L43.9426 193.111L43.7291 191.92L43.5848 190.669L43.5016 189.369L43.4704 188.034L43.4807 186.678L43.5216 185.314L43.5811 183.958L43.6469 182.621L43.7066 181.317L43.7475 180.057L43.7572 178.851L43.724 177.711L43.6365 176.642L43.4844 175.653L43.2585 174.748L42.9508 173.93L42.5547 173.201L42.0653 172.56L41.4795 172.006L40.7957 171.536L40.0143 171.145L39.1375 170.825L38.1696 170.571L37.1163 170.372L35.9852 170.22L34.7856 170.104L33.5282 170.012L32.2247 169.935L30.8884 169.861L29.533 169.779L28.173 169.677L26.8234 169.545L25.499 169.375L24.2148 169.156L22.985 168.882L21.8234 168.545L20.7427 168.14L19.7544 167.663L18.8688 167.112L18.0943 166.484L17.4377 165.779L16.9039 165L16.4958 164.148L16.2142 163.227L16.0576 162.243L16.0227 161.2L16.1039 160.105L16.2937 158.967L16.5828 157.793L16.9601 156.591L17.4129 155.369L17.9273 154.137L18.4883 152.902L19.0801 151.674L19.6863 150.459L20.2901 149.264L20.8751 148.097L21.425 146.962L21.9241 145.865L22.3577 144.81L22.7123 143.798L22.9758 142.832L23.1376 141.914L23.1892 141.041L23.124 140.214L22.9375 139.43L22.6274 138.686L22.1939 137.978L21.6394 137.302L20.9683 136.654L20.1876 136.028L19.3062 135.418L18.3349 134.819L17.2863 134.225L16.1746 133.63L15.0151 133.029L13.8245 132.418L12.6199 131.791L11.4189 131.145L10.2394 130.476L9.09897 129.781L8.01466 129.059L7.0028 128.309L6.07862 127.528L5.25596 126.719L4.54708 125.882L3.96237 125.017L3.51024 124.129L3.1969 123.218L3.0263 122.289L3 121.345L3.11719 120.389L3.37468 119.426L3.76693 118.459L4.28619 117.492L4.92261 116.53L5.66439 115.574L6.49802 114.63L7.40851 113.698L8.37966 112.781L9.3943 111.882L10.4347 111L11.4826 110.136L12.5201 109.291L13.5293 108.462L14.4931 107.65L15.3953 106.85L16.2208 106.062L16.9562 105.283L17.5896 104.508L18.1112 103.734L18.5132 102.958L18.7901 102.176L18.9386 101.383L18.9581 100.578L18.8499 99.7548L18.618 98.9121L18.2686 98.0469L17.8102 97.1572L17.253 96.2415L16.6094 95.299L15.8931 94.3298L15.1194 93.3344L14.3045 92.3142L13.4654 91.2714L12.6199 90.2088L11.7856 89.13L10.9802 88.0391L10.2208 86.9408L9.52391 85.8401L8.90493 84.7426L8.37798 83.654L7.95562 82.58L7.64868 81.5266L7.46602 80.4993L7.41443 79.5036L7.49851 78.5444L7.72056 77.6262L8.08061 76.7528L8.5764 75.9274L9.20342 75.1521L9.95502 74.4284L10.8225 73.7566L11.7955 73.136L12.8617 72.565L14.0075 72.0409L15.2183 71.5601L16.4782 71.1179L17.7711 70.7087L19.0801 70.3263L20.3887 69.9637L21.6804 69.6132L22.9394 69.2669L24.1504 68.9164L25.2996 68.5532L26.3743 68.1691L27.3633 67.7558L28.2571 67.3054L29.0483 66.8108L29.7312 66.2654L30.3024 65.6633L30.7603 65L31.1058 64.2717L31.3416 63.4761L31.4725 62.6119L31.5053 61.6795L31.4484 60.6802L31.3118 59.617L31.1072 58.4943L30.8471 57.3175L30.5451 56.0934L30.2156 54.83L29.8732 53.5361L29.533 52.2215L29.2096 50.8966L28.9175 49.5724L28.6705 48.2602L28.4815 46.9712L28.3625 45.7168L28.3239 44.508L28.3748 43.3551L28.5229 42.2679L28.7739 41.2551L29.1318 40.3245L29.5987 39.4824L30.175 38.7339L30.8592 38.0825L31.6478 37.5301L32.536 37.0769L33.517 36.7214L34.5827 36.4605L35.724 36.2893L36.9302 36.2014L38.1902 36.1887L39.4918 36.2419L40.8227 36.3503L42.1702 36.5024L43.5216 36.6855L44.8646 36.8865L46.1872 37.0917L47.4781 37.2874L48.7271 37.4597L49.9246 37.5954L51.0626 37.6816L52.1342 37.7063L53.1339 37.6584L54.0579 37.5284L54.9036 37.3078L55.6703 36.9902L56.3584 36.5704L56.9702 36.0457L57.5093 35.4147L57.9804 34.6785L58.3896 33.84L58.744 32.9039L59.0517 31.8772L59.3214 30.7682L59.5624 29.5874L59.7844 28.3463L59.9973 27.0581L60.2108 25.7368L60.4347 24.3975L60.6781 23.0556L60.9499 21.7271L61.258 20.4278L61.6096 19.1735L62.011 17.9791L62.4675 16.8591L62.9829 15.8266L63.5604 14.8936L64.2016 14.0704L64.9071 13.3658L65.6762 12.7865L66.5071 12.3371L67.3971 12.0203L68.3422 11.8364L69.3379 11.7836L70.3787 11.8579L71.4584 12.053L72.5706 12.3608L73.7084 12.7711L74.8646 13.272L76.032 13.85L77.2037 14.4904L78.3729 15.1774L79.533 15.8943L80.6781 16.6242L81.8029 17.3496L82.9026 18.0534L83.9735 18.7189L85.0123 19.3299L86.0169 19.8715L86.9858 20.3299L87.9186 20.6928L88.8155 20.9498L89.6778 21.0923L90.5074 21.1139L91.3068 21.0104L92.0792 20.7799L92.8282 20.4227L93.558 19.9418L94.2729 19.3422L94.9774 18.6312L95.6761 17.8184L96.3736 16.915L97.074 15.9343L97.7816 14.8908L98.5001 13.8005L99.2326 12.6803L99.9818 11.5478L100.75 10.421L101.539 9.31786L102.349 8.25624L103.18 7.25334L104.033 6.32551L104.905 5.48794L105.796 4.75439L106.703 4.13693L107.623 3.64576L108.555 3.289L109.493 3.07255L110.435 3L111.377 3.07255L112.315 3.289L113.246 3.64576L114.166 4.13693L115.073 4.75439L115.964 5.48794L116.837 6.32551L117.689 7.25334L118.521 8.25624L119.331 9.31786L120.119 10.421L120.888 11.5478L121.637 12.6803L122.369 13.8005L123.088 14.8908L123.795 15.9343L124.496 16.915L125.193 17.8184L125.892 18.6312L126.596 19.3422L127.311 19.9418L128.041 20.4227L128.79 20.7799L129.563 21.0104L130.362 21.1139L131.191 21.0923L132.054 20.9498L132.951 20.6928L133.884 20.3299L134.852 19.8715L135.857 19.3299L136.896 18.7189L137.967 18.0534L139.066 17.3496L140.191 16.6242L141.336 15.8943L142.496 15.1774L143.666 14.4904L144.837 13.85L146.005 13.272L147.161 12.7711L148.299 12.3608L149.411 12.053L150.491 11.8579L151.531 11.7836L152.527 11.8364L153.472 12.0203L154.362 12.3371L155.193 12.7865L155.962 13.3658L156.668 14.0704L157.309 14.8936L157.886 15.8266L158.402 16.8591L158.858 17.9791L159.26 19.1735L159.611 20.4278L159.919 21.7271L160.191 23.0556L160.435 24.3975L160.659 25.7368L160.872 27.0581L161.085 28.3463L161.307 29.5874L161.548 30.7682L161.818 31.8772L162.125 32.9039L162.48 33.84L162.889 34.6785L163.36 35.4147L163.899 36.0457L164.511 36.5704L165.199 36.9902L165.966 37.3078L166.811 37.5284L167.735 37.6584L168.735 37.7063L169.807 37.6816L170.945 37.5954L172.142 37.4597L173.391 37.2874L174.682 37.0917L176.005 36.8865L177.348 36.6855L178.699 36.5024L180.047 36.3503L181.378 36.2419L182.679 36.1887L183.939 36.2014L185.145 36.2893L186.287 36.4605L187.352 36.7214L188.333 37.0769L189.221 37.5301L190.01 38.0825L190.694 38.7339L191.271 39.4824L191.738 40.3245L192.095 41.2551L192.346 42.2679L192.494 43.3551L192.545 44.508L192.507 45.7168L192.388 46.9712L192.199 48.2602L191.952 49.5724L191.66 50.8966L191.336 52.2215L190.996 53.5361L190.654 54.83L190.324 56.0934L190.022 57.3175L189.762 58.4943L189.557 59.617L189.421 60.6802L189.364 61.6795L189.397 62.6119L189.528 63.4761L189.764 64.2717L190.109 65L190.567 65.6633L191.138 66.2654L191.821 66.8108L192.612 67.3054L193.506 67.7558L194.495 68.1691L195.57 68.5532L196.719 68.9164L197.93 69.2669L199.189 69.6132L200.481 69.9637L201.789 70.3263L203.098 70.7087L204.391 71.1179L205.651 71.5601L206.862 72.0409L208.008 72.565L209.074 73.136L210.047 73.7566L210.914 74.4284L211.666 75.1521L212.293 75.9274L212.789 76.7528L213.149 77.6262L213.371 78.5444L213.455 79.5036L213.403 80.4993L213.221 81.5266L212.914 82.58L212.491 83.654L211.964 84.7426L211.345 85.8401L210.649 86.9408L209.889 88.0391L209.084 89.13L208.249 90.2088L207.404 91.2714L206.565 92.3142L205.75 93.3344L204.976 94.3298L204.26 95.299L203.616 96.2415L203.059 97.1572L202.601 98.0469L202.251 98.9121L202.019 99.7548L201.911 100.578L201.931 101.383L202.079 102.176L202.356 102.958L202.758 103.734L203.28 104.508L203.913 105.283L204.649 106.062L205.474 106.85L206.376 107.65L207.34 108.462L208.349 109.291L209.387 110.136L210.435 111Z" fill="white" fill-opacity="0.1" stroke="white" stroke-width="5"/>
<path fill-rule="evenodd" clip-rule="evenodd" d="M84.3748 155V94.2741H64.193V155H84.3748V155ZM74.286 85.9861C81.3216 85.9861 85.7042 81.3192 85.7042 75.492C85.5712 69.5352 81.3216 65 74.4179 65C67.5131 65.0002 62.9999 69.5354 62.9999 75.4921C62.9999 81.3194 67.3801 85.9863 74.1531 85.9863L74.286 85.9861ZM95.5446 155C95.5446 155 95.8094 99.9718 95.5446 94.2743H115.73V103.081H115.596C118.25 98.9368 123.031 92.8483 133.918 92.8483C147.201 92.8483 157.157 101.528 157.157 120.18V155H136.975V122.513C136.975 114.351 134.055 108.78 126.749 108.78C121.174 108.78 117.852 112.536 116.393 116.166C115.859 117.458 115.73 119.272 115.73 121.087V155H95.5446Z" fill="white"/>
</svg>
